<?xml version="1.0" encoding="UTF-8" standalone="no"?>
<!-- Generator: visioncortex VTracer 0.6.4 -->

<svg
   version="1.1"
   width="1024"
   height="1024"
   id="svg112"
   sodipodi:docname="icon_of.svg"
   inkscape:version="1.2.2 (b0a8486541, 2022-12-01)"
   xmlns:inkscape="http://www.inkscape.org/namespaces/inkscape"
   xmlns:sodipodi="http://sodipodi.sourceforge.net/DTD/sodipodi-0.dtd"
   xmlns="http://www.w3.org/2000/svg"
   xmlns:svg="http://www.w3.org/2000/svg">
  <defs
     id="defs116" />
  <sodipodi:namedview
     id="namedview114"
     pagecolor="#ffffff"
     bordercolor="#000000"
     borderopacity="0.25"
     inkscape:showpageshadow="2"
     inkscape:pageopacity="0.0"
     inkscape:pagecheckerboard="0"
     inkscape:deskcolor="#d1d1d1"
     showgrid="false"
     inkscape:zoom="0.80761719"
     inkscape:cx="511.38089"
     inkscape:cy="469.90085"
     inkscape:window-width="1920"
     inkscape:window-height="1008"
     inkscape:window-x="0"
     inkscape:window-y="0"
     inkscape:window-maximized="1"
     inkscape:current-layer="svg112" />
  <path
     d="M0 0 C2.394 3.591 3.293 7.199 4.383 11.316 C4.712 12.535 4.712 12.535 5.047 13.778 C5.508 15.493 5.967 17.208 6.423 18.925 C7.124 21.558 7.833 24.188 8.543 26.818 C8.99 28.484 9.437 30.15 9.883 31.816 C10.095 32.606 10.308 33.396 10.527 34.209 C12 39.767 12 39.767 12 42 C9.525 42.495 9.525 42.495 7 43 C7.025 43.764 7.05 44.528 7.076 45.315 C7.314 52.594 7.55 59.874 7.782 67.153 C7.902 70.893 8.023 74.634 8.146 78.374 C9.19 110.182 9.19 110.182 9 124 C22.345 125.191 22.345 125.191 34 120 C41.763 109.895 39.039 96.803 38 84.938 C37.302 76.932 36.855 69.038 37 61 C34.36 61 31.72 61 29 61 C33.891 49.956 39.319 41.426 48 33 C49.281 36.416 48.728 39.287 48.254 42.83 C47.52 49.104 47.71 55.5 47.688 61.812 C47.684 62.604 47.68 63.396 47.676 64.211 C47.645 77.277 48.814 89.697 51.125 102.578 C52.641 111.26 52.388 118.169 48 126 C42.012 134.2 33.815 137.444 24 139 C21.897 139.066 19.792 139.086 17.688 139.062 C16.619 139.053 15.55 139.044 14.449 139.035 C13.641 139.024 12.833 139.012 12 139 C10.661 141.152 10.661 141.152 11.75 144.375 C12.868 147.618 13.906 149.388 16 152 C9.11 154.595 3.262 155.695 -4 154 C-6.289 152.949 -6.289 152.949 -8 152 C-6.991 150.665 -5.982 149.331 -4.973 147.996 C-3.56 145.098 -3.359 142.179 -3 139 C-4.316 139.035 -5.632 139.07 -6.988 139.105 C-30.177 139.547 -30.177 139.547 -39 132.188 C-43.735 127.579 -46.645 122.68 -47.15 116.019 C-47.165 110.967 -46.681 106.141 -45.932 101.148 C-43.073 81.984 -42.507 62.151 -45.562 42.969 C-45.962 40.257 -46.082 37.735 -46 35 C-36.541 42.529 -31.05 51.068 -26 62 C-28.31 62 -30.62 62 -33 62 C-33.146 66.407 -33.288 70.813 -33.427 75.22 C-33.475 76.711 -33.523 78.203 -33.573 79.694 C-33.838 87.716 -34.059 95.739 -34.133 103.766 C-34.147 105.032 -34.161 106.298 -34.176 107.603 C-33.929 112.36 -32.863 116.171 -30 120 C-25.491 123.758 -21.669 125.141 -15.891 125.098 C-14.759 125.093 -14.759 125.093 -13.605 125.088 C-12.828 125.08 -12.051 125.071 -11.25 125.062 C-10.061 125.056 -10.061 125.056 -8.848 125.049 C-6.898 125.037 -4.949 125.019 -3 125 C-3.013 124.445 -3.025 123.889 -3.038 123.317 C-3.639 96.543 -4.198 69.782 -4 43 C-5.98 43 -7.96 43 -10 43 C-9.402 37.582 -8.496 32.365 -7.188 27.07 C-6.927 25.996 -6.927 25.996 -6.661 24.899 C-6.297 23.401 -5.93 21.904 -5.562 20.407 C-4.997 18.111 -4.439 15.814 -3.883 13.516 C-3.526 12.055 -3.17 10.594 -2.812 9.133 C-2.646 8.446 -2.479 7.76 -2.307 7.053 C-1.116 2.232 -1.116 2.232 0 0 Z "
     fill="#ffffff"
     transform="translate(273,83)"
     id="path2"
     style="fill:#f1e4cb;fill-opacity:1" />
  <path
     d="M0 0 C7.59 0 15.18 0 23 0 C25.25 12.375 25.25 12.375 25.625 16.688 C25.737 17.931 25.737 17.931 25.852 19.199 C25.901 19.793 25.95 20.388 26 21 C27.729 21.481 29.458 21.96 31.188 22.438 C32.15 22.704 33.113 22.971 34.105 23.246 C35.538 23.619 35.538 23.619 37 24 C37.83 24.29 38.66 24.58 39.516 24.879 C42.217 25.263 42.217 25.263 44.754 23.094 C46.144 21.81 46.144 21.81 47.562 20.5 C50.379 17.906 50.379 17.906 53 16 C58.046 16.498 60.918 20.404 64.312 23.812 C64.971 24.442 65.629 25.072 66.307 25.721 C67.232 26.642 67.232 26.642 68.176 27.582 C68.742 28.141 69.308 28.7 69.892 29.277 C71 31 71 31 70.812 33.059 C69.583 35.997 67.435 37.893 65.25 40.188 C61.933 43.878 61.933 43.878 60.969 48.508 C61.772 50.878 62.738 52.839 64 55 C64.374 56.06 64.748 57.119 65.133 58.211 C66.808 61.419 66.808 61.419 70.758 61.77 C72.213 61.813 73.669 61.827 75.125 61.812 C82.942 61.942 82.942 61.942 84 63 C84.087 64.708 84.107 66.419 84.098 68.129 C84.094 69.163 84.091 70.198 84.088 71.264 C84.08 72.352 84.071 73.441 84.062 74.562 C84.058 75.655 84.053 76.747 84.049 77.873 C84.037 80.582 84.021 83.291 84 86 C80.451 87.774 76.842 87.91 73 87 C71.079 85.197 69.819 83.322 68.402 81.105 C66.099 77.647 63.006 74.741 59.055 73.281 C56.002 71.378 54.842 68.485 53.25 65.375 C46.12 52.242 36.182 45.325 22 41 C9.882 38.135 -1.735 40.713 -12.586 46.5 C-21.209 51.858 -26.716 58.793 -30.902 67.98 C-33.339 73.068 -36.654 74.805 -41.418 77.379 C-44.16 79.101 -45.935 80.949 -48.062 83.375 C-50.245 85.723 -51.332 86.864 -54.496 87.508 C-56.722 87.501 -58.806 87.366 -61 87 C-61.897 83.932 -62.117 81.207 -62.098 78.016 C-62.094 77.081 -62.091 76.146 -62.088 75.184 C-62.08 74.216 -62.071 73.247 -62.062 72.25 C-62.058 71.266 -62.053 70.283 -62.049 69.27 C-62.037 66.846 -62.019 64.423 -62 62 C-56.39 62 -50.78 62 -45 62 C-44.34 60.02 -43.68 58.04 -43 56 C-42.443 54.804 -41.886 53.608 -41.312 52.375 C-39.795 48.582 -39.795 48.582 -41 45 C-42.454 43.032 -43.983 41.119 -45.562 39.25 C-46.389 38.265 -47.215 37.28 -48.066 36.266 C-48.704 35.518 -49.343 34.77 -50 34 C-47.09 29.348 -43.855 25.46 -40 21.562 C-39.479 21.009 -38.958 20.455 -38.422 19.885 C-34.623 16.033 -34.623 16.033 -31.918 15.891 C-29.388 17.354 -27.446 19.191 -25.312 21.188 C-21.834 24.173 -21.834 24.173 -17.523 25.152 C-15.212 24.631 -13.171 23.946 -11 23 C-10.051 22.629 -9.103 22.257 -8.125 21.875 C-7.424 21.586 -6.722 21.297 -6 21 C-5.01 21 -4.02 21 -3 21 C-2.951 20.071 -2.902 19.141 -2.852 18.184 C-2.777 16.947 -2.702 15.711 -2.625 14.438 C-2.555 13.219 -2.486 12.001 -2.414 10.746 C-2 7 -2 7 0 0 Z "
     fill="#ffffff"
     transform="translate(501,85)"
     id="path4"
     style="fill:#478cbf;fill-opacity:1" />
  <path
     d="M0 0 C6.799 -0.285 13.321 1.025 19.219 4.512 C19.782 5.054 20.345 5.597 20.926 6.156 C20.926 7.476 20.926 8.796 20.926 10.156 C19.332 9.723 19.332 9.723 17.707 9.281 C16.28 8.906 14.853 8.531 13.426 8.156 C12.73 7.965 12.034 7.775 11.316 7.578 C3.624 5.584 -2.889 5.91 -10.699 7.656 C-15.276 8.675 -19.381 9.33 -24.074 9.156 C-17.951 2.316 -8.842 0.666 0 0 Z "
     fill="#ffffff"
     transform="translate(512.07421875,133.84375)"
     id="path6"
     style="fill:#478cbf;fill-opacity:1" />
  <path
     d="M0 0 C2.5 2.062 2.5 2.062 4 4 C3.67 4.99 3.34 5.98 3 7 C1.349 7.796 1.349 7.796 -0.797 8.395 C-1.585 8.625 -2.374 8.856 -3.186 9.093 C-4.032 9.331 -4.878 9.568 -5.75 9.812 C-13.07 11.975 -19.784 14.498 -26.629 17.898 C-29 19 -29 19 -31 19 C-31 19.66 -31 20.32 -31 21 C-27.37 20.67 -23.74 20.34 -20 20 C-22.858 26.779 -26.468 28.406 -33.028 31.198 C-38.412 33.387 -43.874 35.367 -49.348 37.32 C-54.402 39.125 -59.37 41.115 -64.336 43.152 C-67.054 44.017 -69.168 44.17 -72 44 C-70.472 38.771 -67.138 35.388 -63.5 31.5 C-62.873 30.825 -62.246 30.15 -61.6 29.455 C-57.443 25.129 -53.682 22.331 -48.07 20.094 C-45.562 18.769 -44.81 17.481 -43.375 15.062 C-39.466 9.155 -32.432 7.791 -26.024 5.692 C-22.078 4.343 -18.28 2.632 -14.453 0.98 C-9.413 -1.034 -5.277 -1.449 0 0 Z "
     fill="#ffffff"
     transform="translate(520,144)"
     id="path8"
     style="fill:#478cbf;fill-opacity:1" />
  <path
     d="M0 0 C8.787 1.424 18.671 10.701 24.133 17.508 C26.812 21.722 28.258 25.593 29.133 30.508 C28.359 30.485 27.586 30.461 26.789 30.438 C25.747 30.419 24.706 30.401 23.633 30.383 C22.101 30.348 22.101 30.348 20.539 30.312 C16.498 30.544 13.031 31.432 9.133 32.508 C9.103 36.154 9.086 39.799 9.07 43.445 C9.062 44.467 9.054 45.488 9.045 46.541 C9.03 51.311 9.114 55.962 9.699 60.699 C9.842 61.956 9.985 63.213 10.133 64.508 C8.013 66.627 3.581 66.272 0.699 66.617 C-2.115 67.266 -2.115 67.266 -3.215 70.086 C-3.43 70.885 -3.645 71.684 -3.867 72.508 C-1.227 72.178 1.413 71.848 4.133 71.508 C3.803 72.498 3.473 73.488 3.133 74.508 C8.307 74.228 8.307 74.228 13.008 72.383 C16.264 66.956 16.404 61.205 16.258 55.07 C16.249 54.339 16.24 53.607 16.23 52.854 C16.207 51.071 16.171 49.29 16.133 47.508 C20.093 49.488 24.053 51.468 28.133 53.508 C29.154 70.024 25.894 89.703 16.133 103.508 C10.932 109.172 5.759 112.858 -2.07 113.523 C-14.769 113.452 -25.033 108.502 -35.867 102.508 C-31.295 110.269 -25.436 116.606 -19.24 123.072 C-18.099 124.265 -16.973 125.473 -15.852 126.684 C-10.467 132.358 -4.44 136.597 2.883 139.383 C6.376 140.828 7.805 142.078 9.633 145.383 C12.683 150.879 16.903 154.283 23.009 156.051 C27.348 157.096 31.721 157.845 36.133 158.508 C32.35 170.481 14.668 176.724 4.484 182.121 C-1.504 185.296 -7.414 188.593 -13.305 191.945 C-15.199 193.021 -17.094 194.096 -18.988 195.172 C-19.942 195.714 -20.896 196.255 -21.878 196.813 C-30.292 201.583 -38.731 206.308 -47.184 211.008 C-49.43 212.264 -51.666 213.535 -53.898 214.816 C-90.868 235.508 -90.868 235.508 -105.867 235.508 C-104.613 228.491 -103.291 221.492 -101.867 214.508 C-106.901 216.807 -108.575 220.166 -110.742 225.008 C-112.948 229.837 -115.33 234.284 -118.281 238.707 C-122.209 244.764 -124.782 251.104 -127.367 257.82 C-128.321 260.216 -129.278 262.611 -130.238 265.004 C-130.692 266.134 -131.145 267.265 -131.613 268.429 C-140.383 289.954 -154.804 305.333 -172.867 319.508 C-174.03 320.448 -175.191 321.389 -176.352 322.332 C-193.923 336.524 -193.923 336.524 -202.754 335.914 C-213.388 333.87 -222.856 322.142 -229.867 314.508 C-231.4 311.441 -231.208 308.174 -231.367 304.801 C-231.408 304.015 -231.448 303.23 -231.489 302.421 C-231.62 299.846 -231.744 297.271 -231.867 294.695 C-231.955 292.93 -232.043 291.164 -232.13 289.398 C-232.864 274.44 -233.427 259.478 -233.867 244.508 C-230.074 245.772 -229.588 247.097 -227.367 250.383 C-222.995 256.568 -217.776 261.729 -212.367 267.008 C-201.603 277.596 -193.599 286.875 -188.867 301.508 C-188.495 302.624 -188.122 303.74 -187.738 304.891 C-187.451 305.754 -187.163 306.618 -186.867 307.508 C-184.564 302.901 -185.494 296.525 -185.867 291.508 C-186.547 289.635 -187.273 287.778 -188.055 285.945 C-188.879 283.27 -188.879 283.27 -188.867 280.508 C-186.322 276.188 -183.071 272.813 -179.562 269.26 C-176.694 266.295 -174.046 263.143 -171.367 260.008 C-170.263 258.73 -169.157 257.452 -168.051 256.176 C-167.514 255.556 -166.978 254.937 -166.425 254.298 C-164.989 252.648 -163.541 251.008 -162.09 249.371 C-152.286 238.196 -143.986 225.87 -135.889 213.424 C-120.949 190.526 -102.64 177.503 -76.723 169.164 C-76.054 168.948 -75.385 168.731 -74.697 168.508 C-72.859 167.92 -71.016 167.35 -69.172 166.781 C-62.483 164.204 -57.095 160.13 -53.926 153.555 C-51.286 146.871 -50.723 140.541 -50.988 133.383 C-51.024 132.218 -51.024 132.218 -51.06 131.03 C-51.111 129.375 -51.164 127.721 -51.219 126.066 C-51.362 121.784 -51.486 117.501 -51.609 113.219 C-51.646 111.958 -51.646 111.958 -51.683 110.672 C-51.955 100.95 -51.966 91.233 -51.867 81.508 C-52.79 81.554 -53.713 81.601 -54.664 81.648 C-59.126 81.453 -60.769 79.606 -63.867 76.508 C-65.952 73.476 -66.069 71.147 -65.867 67.508 C-64.877 67.508 -63.887 67.508 -62.867 67.508 C-62.537 68.168 -62.207 68.828 -61.867 69.508 C-58.048 68.977 -55.636 68.242 -52.867 65.508 C-52.312 62.655 -52.312 62.655 -52.367 59.445 C-51.718 47.184 -45.243 33.981 -36.562 25.168 C-34.398 23.456 -32.217 21.952 -29.867 20.508 C-29.21 20.076 -28.552 19.644 -27.875 19.199 C-25.123 17.425 -22.33 15.763 -19.461 14.184 C-13.648 10.909 -9.443 7.322 -5.07 2.266 C-2.867 0.508 -2.867 0.508 0 0 Z M-32.742 34.758 C-33.299 35.624 -33.299 35.624 -33.867 36.508 C-33.145 36.198 -32.423 35.889 -31.68 35.57 C-25.731 33.323 -21.07 33.629 -14.867 34.508 C-16.097 34.98 -16.097 34.98 -17.352 35.461 C-18.429 35.889 -19.507 36.317 -20.617 36.758 C-21.685 37.175 -22.752 37.593 -23.852 38.023 C-26.865 39.507 -28.664 41.005 -30.867 43.508 C-30.324 43.69 -29.782 43.871 -29.223 44.059 C-28.507 44.31 -27.792 44.561 -27.055 44.82 C-26.347 45.064 -25.639 45.308 -24.91 45.559 C-22.867 46.508 -22.867 46.508 -21.293 48.094 C-19.843 49.827 -19.843 49.827 -16.867 49.82 C-13.688 49.724 -13.688 49.724 -10.867 47.508 C-8.535 47.429 -6.199 47.42 -3.867 47.508 C-1.529 42.571 -1.824 38.817 -3.047 33.652 C-3.716 31.312 -3.716 31.312 -6.055 29.945 C-6.983 29.801 -7.911 29.657 -8.867 29.508 C-9.94 29.302 -11.012 29.095 -12.117 28.883 C-23.719 27.716 -23.719 27.716 -32.742 34.758 Z M-11.867 84.508 C-10.877 85.993 -10.877 85.993 -9.867 87.508 C-7.48 87.941 -7.48 87.941 -4.711 87.836 C-3.689 87.831 -2.666 87.826 -1.613 87.82 C-0.542 87.8 0.529 87.779 1.633 87.758 C3.24 87.75 3.24 87.75 4.879 87.742 C10.174 87.918 10.174 87.918 15.133 86.508 C13.959 82.986 12.517 81.903 9.285 80.172 C2.67 78.131 -5.634 82.249 -11.867 84.508 Z M-3.867 93.508 C-3.537 94.498 -3.207 95.488 -2.867 96.508 C-0.514 97.685 1.013 97.674 3.633 97.695 C4.427 97.709 5.221 97.724 6.039 97.738 C8.353 97.704 8.353 97.704 10.133 95.508 C10.133 94.188 10.133 92.868 10.133 91.508 C8.362 91.454 6.591 91.415 4.82 91.383 C3.834 91.36 2.848 91.336 1.832 91.312 C-1.091 91.301 -1.091 91.301 -3.867 93.508 Z "
     fill="#ffffff"
     transform="translate(531.8671875,154.4921875)"
     id="path10"
     style="fill:#f1e4cb;fill-opacity:1" />
  <path
     d="M0 0 C0.892 0.009 1.784 0.018 2.703 0.027 C3.379 0.039 4.054 0.051 4.75 0.062 C3.885 7.544 -2.14 12.434 -7.648 17.09 C-15.558 22.939 -24.253 26.188 -33.625 28.938 C-39.37 30.762 -41.847 33.147 -45.25 38.062 C-46.462 34.595 -46.075 32.641 -44.75 29.25 C-44.301 28.034 -44.301 28.034 -43.844 26.793 C-39.589 19.504 -32.817 15.168 -25.75 10.875 C-24.934 10.368 -24.118 9.861 -23.277 9.338 C-20.945 7.895 -18.602 6.474 -16.25 5.062 C-15.586 4.661 -14.922 4.259 -14.238 3.845 C-9.196 0.863 -5.797 -0.076 0 0 Z "
     fill="#ffffff"
     transform="translate(473.25,186.9375)"
     id="path12"
     style="fill:#478cbf;fill-opacity:1" />
  <path
     d="M0 0 C0.453 7.141 -0.604 11.731 -4 18 C-4.536 19.052 -5.072 20.104 -5.625 21.188 C-12.555 29.394 -21.663 31.187 -31.804 33.088 C-43.203 35.323 -52.225 40.286 -60 49 C-63.352 54.056 -65.808 59.358 -68 65 C-68.33 65 -68.66 65 -69 65 C-69.978 53.77 -67.896 46.04 -60.762 37.238 C-51.37 27.217 -39.271 22.677 -26.697 17.789 C-18.285 14.409 -11.843 10.249 -5.625 3.625 C-2.217 0 -2.217 0 0 0 Z "
     fill="#ffffff"
     transform="translate(444,228)"
     id="path14"
     style="fill:#478cbf;fill-opacity:1" />
  <path
     d="M0 0 C3.96 0 7.92 0 12 0 C12.893 6.354 13.303 12.654 13.562 19.062 C13.605 20.068 13.647 21.074 13.691 22.11 C14.008 30.078 14.113 38.026 14 46 C8.06 46.495 8.06 46.495 2 47 C0.939 37.11 0.677 27.248 0.438 17.312 C0.394 15.628 0.351 13.944 0.307 12.26 C0.201 8.173 0.099 4.087 0 0 Z "
     fill="#ffffff"
     transform="translate(270,243)"
     id="path16"
     style="fill:#478cbf;fill-opacity:1" />
  <path
     d="M0 0 C0.495 0.99 0.495 0.99 1 2 C-6.292 20.97 -20.297 31.544 -38.004 40.373 C-48.18 45.673 -53.192 51.981 -57.188 62.625 C-60.584 71.423 -63.263 77.711 -72 82 C-80.565 84.855 -87.875 82.278 -95.898 78.996 C-98.921 78.025 -100.163 77.665 -103 79 C-105.323 83.035 -105.537 87.447 -106 92 C-109.664 87.381 -110.502 83.921 -110 78 C-108.383 74.94 -106.924 72.759 -104.25 70.562 C-100.171 69.543 -96.002 70.437 -92 71.562 C-86.143 72.844 -81.04 72.428 -75.812 69.508 C-71.46 65.887 -69.813 60.199 -67.902 55.031 C-63.9 44.502 -57.392 35.857 -47 31 C-44.672 30.091 -42.338 29.197 -40 28.312 C-25.659 22.834 -8.809 12.928 0 0 Z "
     fill="#ffffff"
     transform="translate(459,244)"
     id="path18"
     style="fill:#478cbf;fill-opacity:1" />
  <path
     d="M0 0 C0.461 0.364 0.923 0.727 1.398 1.102 C7.831 6.059 14.489 10.37 21.844 13.84 C32.255 18.762 43.453 24.326 47.688 35.875 C48.136 38.924 48.059 41.925 48 45 C46.35 45 44.7 45 43 45 C42.816 44.371 42.631 43.742 42.441 43.094 C39.955 35.755 36.505 31.248 30 27 C26.502 25.364 22.959 23.921 19.375 22.484 C11.119 18.853 5.013 13.112 1 5 C0.344 2.227 0.344 2.227 0 0 Z "
     fill="#ffffff"
     transform="translate(571,250)"
     id="path20"
     style="fill:#478cbf;fill-opacity:1" />
  <path
     d="M0 0 C0.664 1.723 0.664 1.723 1 4 C-3.607 13.681 -12.208 20.295 -21 26 C-21.66 26 -22.32 26 -23 26 C-23.264 26.675 -23.529 27.351 -23.801 28.047 C-29.711 42.601 -35.397 53.38 -49 62 C-49.922 62.66 -50.843 63.32 -51.793 64 C-59.386 69.186 -66.655 71.695 -75.577 73.746 C-81.603 75.22 -85.857 77.282 -90 82 C-92.512 86.606 -93.469 90.801 -94 96 C-97.613 90.581 -97.655 85.345 -97 79 C-93.56 71.992 -88.26 68.779 -81.211 66.059 C-77.939 64.98 -74.657 64.104 -71.323 63.244 C-60.747 60.5 -52.825 57.844 -47 48 C-46.021 45.763 -45.136 43.504 -44.264 41.224 C-39.104 27.804 -33.255 20.035 -20.107 13.979 C-12.607 10.505 -5.866 5.866 0 0 Z "
     fill="#ffffff"
     transform="translate(459,275)"
     id="path22"
     style="fill:#478cbf;fill-opacity:1" />
  <path
     d="M0 0 C0.619 0.639 1.237 1.279 1.875 1.938 C2.912 2.963 3.955 3.983 5 5 C5.728 5.713 6.457 6.426 7.207 7.16 C12.746 12.386 18.04 15.959 25 19 C26.337 19.659 27.672 20.324 29 21 C21.234 21.844 15.74 18.348 9.312 14.312 C5.648 10.648 2.679 6.431 0 2 C0 1.34 0 0.68 0 0 Z "
     fill="#ffffff"
     transform="translate(561,276)"
     id="path24"
     style="fill:#478cbf;fill-opacity:1" />
  <path
     d="M0 0 C0.66 0.66 1.32 1.32 2 2 C1.625 5.625 1.625 5.625 1 9 C-0.764 9.588 -2.541 10.142 -4.34 10.613 C-5.197 10.844 -6.054 11.075 -6.938 11.312 C-7.792 11.536 -8.647 11.759 -9.527 11.988 C-12.405 13.166 -13.951 14.695 -16 17 C-15.25 16.928 -14.5 16.856 -13.727 16.781 C-7.127 16.183 -0.625 15.868 6 16 C7.619 18.572 8.044 19.677 7.625 22.75 C7.419 23.493 7.212 24.235 7 25 C5.891 25.193 4.783 25.387 3.641 25.586 C2.177 25.849 0.713 26.112 -0.75 26.375 C-1.48 26.501 -2.209 26.628 -2.961 26.758 C-6.64 27.427 -9.716 28.23 -13 30 C-12.405 30.02 -11.809 30.04 -11.196 30.06 C-8.505 30.155 -5.815 30.265 -3.125 30.375 C-2.188 30.406 -1.251 30.437 -0.285 30.469 C0.611 30.507 1.507 30.546 2.43 30.586 C3.671 30.633 3.671 30.633 4.937 30.681 C7 31 7 31 9 33 C9.125 36.125 9.125 36.125 9 39 C4.079 40.498 -0.792 41.568 -5.863 42.438 C-8.195 42.86 -8.195 42.86 -10 45 C-8.88 45.037 -7.76 45.075 -6.605 45.113 C-5.133 45.179 -3.66 45.245 -2.188 45.312 C-1.081 45.346 -1.081 45.346 0.049 45.381 C3.035 45.53 5.426 45.649 8.012 47.23 C9.322 49.577 9.214 51.357 9 54 C8.131 54.159 7.262 54.317 6.367 54.48 C4.639 54.83 4.639 54.83 2.875 55.188 C1.17 55.518 1.17 55.518 -0.57 55.855 C-5.98 57.661 -9.03 60.34 -11.898 65.25 C-12.419 66.488 -12.91 67.739 -13.375 69 C-13.63 69.675 -13.885 70.35 -14.147 71.045 C-17.177 80.091 -16.535 89.596 -16 99 C-19 98 -19 98 -20.754 94.902 C-21.368 93.586 -21.97 92.264 -22.562 90.938 C-23.018 89.972 -23.018 89.972 -23.482 88.986 C-27.141 80.992 -28.313 73.439 -28.633 64.727 C-28.674 63.763 -28.716 62.799 -28.759 61.806 C-28.889 58.746 -29.007 55.686 -29.125 52.625 C-29.212 50.578 -29.299 48.531 -29.387 46.484 C-29.469 44.503 -29.551 42.521 -29.633 40.539 C-29.67 39.631 -29.708 38.724 -29.746 37.789 C-30.574 16.248 -30.574 16.248 -28 11 C-21.49 4.475 -9.295 -1.414 0 0 Z "
     fill="#ffffff"
     transform="translate(285,295)"
     id="path26"
     style="fill:#f1e4cb;fill-opacity:1" />
  <path
     d="M0 0 C1.875 0.188 1.875 0.188 4 1 C5.922 4.737 6.271 7.895 6.25 12.062 C6.255 13.085 6.26 14.107 6.266 15.16 C6.004 17.961 5.441 19.616 4 22 C-1.877 8.794 -1.877 8.794 -2 3 C-1.34 2.01 -0.68 1.02 0 0 Z "
     fill="#ffffff"
     transform="translate(298,297)"
     id="path28"
     style="fill:#f1e4cb;fill-opacity:1" />
  <path
     d="M0 0 C4.7 0.4 9.17 1.679 13.555 3.41 C13.555 4.4 13.555 5.39 13.555 6.41 C11.789 7.777 11.789 7.777 9.305 9.285 C-0.467 15.837 -7.794 25.423 -15.094 34.527 C-17.343 37.285 -19.654 39.974 -21.991 42.657 C-30.602 52.408 -30.602 52.408 -37.445 63.41 C-24.848 55.213 -13.82 44.374 -5.059 32.168 C-3.189 30.131 -2.087 29.953 0.555 29.41 C0.383 30.24 0.212 31.071 0.036 31.926 C-0.613 35.084 -1.258 38.244 -1.899 41.404 C-2.174 42.756 -2.452 44.109 -2.731 45.461 C-5.356 58.183 -7.316 70.875 -8.128 83.856 C-9.258 101.774 -12.135 120.1 -25.445 133.41 C-29.746 137.03 -34.186 140.331 -39.445 142.41 C-40.435 142.08 -41.425 141.75 -42.445 141.41 C-41.435 140.812 -40.424 140.214 -39.383 139.598 C-29.019 132.144 -23.786 117.309 -21.707 105.176 C-21.577 104.302 -21.577 104.302 -21.445 103.41 C-21.858 103.967 -22.27 104.524 -22.695 105.098 C-30.305 115.153 -39.46 125.76 -52.445 128.41 C-59.573 129.115 -65.578 128.808 -71.445 124.41 C-73.499 122.457 -75.47 120.444 -77.445 118.41 C-77.713 119.694 -77.982 120.978 -78.258 122.301 C-82.269 140.712 -88.471 157.388 -98.445 173.41 C-97.525 172.902 -96.605 172.394 -95.656 171.871 C-74.969 160.57 -58.104 155.824 -34.445 156.41 C-37.66 159.887 -41.261 162.506 -45.195 165.098 C-45.852 165.532 -46.509 165.966 -47.186 166.414 C-54.401 171.121 -61.85 175.351 -69.445 179.41 C-70.091 179.758 -70.736 180.106 -71.401 180.465 C-94.651 192.902 -118.924 200.692 -145.445 199.41 C-145.445 195.12 -145.445 190.83 -145.445 186.41 C-143.568 185.791 -141.692 185.173 -139.758 184.535 C-127.868 179.937 -118.598 171.969 -111.445 161.41 C-110.707 160.322 -109.968 159.234 -109.207 158.113 C-102.948 148.477 -99.08 138.269 -95.445 127.41 C-95.775 127.08 -96.105 126.75 -96.445 126.41 C-97.155 127.518 -97.155 127.518 -97.879 128.648 C-102.647 135.964 -107.732 142.788 -113.445 149.41 C-114.301 150.413 -115.157 151.416 -116.039 152.449 C-124.227 161.837 -133.614 169.192 -144.445 175.41 C-145.105 175.41 -145.765 175.41 -146.445 175.41 C-147.092 172.994 -147.737 170.577 -148.383 168.16 C-148.565 167.478 -148.748 166.796 -148.936 166.094 C-149.796 162.872 -150.652 159.65 -151.445 156.41 C-150.851 156.286 -150.257 156.163 -149.645 156.035 C-132.097 151.669 -121.981 136.455 -111.999 122.564 C-89.705 91.659 -89.705 91.659 -79.16 80.336 C-77.39 78.516 -77.39 78.516 -76.445 76.41 C-75.785 76.41 -75.125 76.41 -74.445 76.41 C-74.07 75.54 -74.07 75.54 -73.688 74.652 C-71.866 71.365 -69.235 69.16 -66.516 66.605 C-64.125 64.07 -62.311 61.347 -60.445 58.41 C-70.347 65.032 -79.114 72.343 -87.64 80.656 C-89.353 82.32 -91.086 83.961 -92.824 85.598 C-100.084 92.528 -106.185 100.007 -112.172 108.051 C-116.938 114.45 -121.997 120.61 -127.083 126.757 C-128.244 128.166 -129.391 129.588 -130.535 131.012 C-134.853 136.24 -139.262 140.737 -146.188 141.852 C-152.119 142.101 -155.923 141.521 -160.445 137.41 C-166.807 131.447 -170.248 125.487 -170.535 116.645 C-170.075 108.189 -167.34 100.353 -161.438 94.134 C-153.727 87.462 -142.917 84.714 -133.351 81.715 C-121.892 78.103 -110.772 74.372 -100.283 68.43 C-98.242 67.298 -96.173 66.24 -94.09 65.188 C-82.218 59.158 -70.887 52.355 -59.575 45.341 C-56.844 43.656 -54.105 41.985 -51.36 40.324 C-49.624 39.273 -47.89 38.219 -46.156 37.165 C-43.965 35.832 -41.772 34.503 -39.576 33.179 C-26.822 25.384 -14.394 16.884 -6.008 4.285 C-3.205 0.538 -3.205 0.538 0 0 Z "
     fill="#ffffff"
     transform="translate(581.4453125,308.58984375)"
     id="path30"
     style="fill:#478cbf;fill-opacity:1" />
  <path
     d="M0 0 C18.497 8.41 28.73 22.395 35.95 41.066 C37.616 45.578 39.143 50.139 40.695 54.691 C43.845 63.886 47.319 72.594 51.758 81.254 C52.256 82.228 52.754 83.203 53.267 84.207 C58.246 93.921 63.254 103.623 68.43 113.234 C73.509 122.686 78.218 132.284 82.758 142.004 C83.044 142.612 83.33 143.221 83.624 143.848 C92.958 163.76 92.958 163.76 89.032 175.099 C88.649 176.135 88.649 176.135 88.258 177.191 C87.989 177.931 87.721 178.67 87.444 179.432 C84.759 186.609 81.437 193.383 77.858 200.15 C76.716 202.334 75.614 204.535 74.516 206.742 C62.631 230.358 46.713 252.03 29.758 272.254 C28.299 274.066 26.841 275.879 25.383 277.691 C23.845 279.549 22.303 281.403 20.758 283.254 C20.338 283.772 19.918 284.29 19.485 284.824 C13.156 292.58 7.442 297.233 -2.242 300.254 C-5.233 301.227 -8.22 302.21 -11.206 303.196 C-13.309 303.886 -15.415 304.563 -17.526 305.226 C-29.103 308.942 -37.976 314.155 -45.867 323.441 C-48.396 326.413 -50.633 328.604 -54.242 330.254 C-54.902 330.254 -55.562 330.254 -56.242 330.254 C-54.619 321.025 -51.36 314.315 -45.512 307.016 C-44.049 305.17 -44.049 305.17 -43.242 302.254 C-52.57 305.331 -58.441 309.878 -64.742 317.316 C-68.078 321.241 -71.753 324.677 -76.242 327.254 C-77.232 327.254 -78.222 327.254 -79.242 327.254 C-75.812 317.556 -66.679 303.972 -57.242 299.254 C-63.121 299.094 -68.476 299.645 -74.242 300.754 C-75.017 300.897 -75.792 301.04 -76.59 301.188 C-78.475 301.537 -80.359 301.894 -82.242 302.254 C-82.902 300.934 -83.562 299.614 -84.242 298.254 C-73.618 292.706 -65.215 290.061 -53.242 289.254 C-59.182 287.604 -65.122 285.954 -71.242 284.254 C-71.242 280.254 -71.242 280.254 -70.242 279.254 C-64.461 278.787 -58.873 279.214 -53.18 280.254 C-43.853 281.919 -37.491 282.109 -29.242 277.254 C-23.746 274.109 -18.686 273.333 -12.52 272.525 C-6.161 271.564 -1.28 269.198 2.695 263.941 C10.481 252.658 14.753 239.193 19.27 226.369 C23.64 213.972 28.071 201.621 33.203 189.516 C33.557 188.68 33.912 187.844 34.277 186.983 C35.961 183.034 37.672 179.098 39.412 175.173 C40.02 173.773 40.627 172.373 41.234 170.973 C41.522 170.346 41.81 169.718 42.106 169.072 C43.607 165.59 43.607 165.59 43.015 161.948 C41.547 159.97 39.967 158.217 38.258 156.441 C28.663 145.807 21.901 133.177 15.085 120.672 C8.037 107.828 0.581 95.239 -7.07 82.747 C-10.983 76.348 -14.84 69.921 -18.617 63.441 C-19.088 62.641 -19.558 61.84 -20.043 61.015 C-20.467 60.283 -20.891 59.551 -21.328 58.797 C-21.7 58.158 -22.072 57.519 -22.455 56.86 C-23.242 55.254 -23.242 55.254 -23.242 53.254 C-23.902 53.254 -24.562 53.254 -25.242 53.254 C-25.572 60.844 -25.902 68.434 -26.242 76.254 C-29.333 73.163 -29.836 72.062 -30.867 68.004 C-31.107 67.091 -31.347 66.179 -31.594 65.238 C-35.692 46.377 -35.687 21.603 -26.242 4.254 C-18.683 -4.818 -10.315 -4.123 0 0 Z "
     fill="#ffffff"
     transform="translate(623.2421875,318.74609375)"
     id="path32"
     style="fill:#f1e4cb;fill-opacity:1" />
  <path
     d="M0 0 C1.145 4.689 1.282 9.321 1.462 14.121 C1.5 15.041 1.537 15.962 1.576 16.911 C1.701 19.997 1.82 23.084 1.94 26.171 C2.028 28.384 2.117 30.596 2.206 32.809 C2.447 38.821 2.684 44.834 2.919 50.847 C3.166 57.139 3.417 63.432 3.667 69.724 C4.088 80.296 4.505 90.868 4.921 101.44 C5.348 112.306 5.777 123.172 6.21 134.038 C6.236 134.707 6.263 135.375 6.29 136.064 C6.317 136.732 6.344 137.399 6.371 138.087 C6.889 151.095 7.404 164.103 7.918 177.111 C8.066 180.857 8.215 184.602 8.364 188.347 C8.598 194.24 8.83 200.133 9.061 206.027 C9.146 208.187 9.231 210.347 9.317 212.508 C9.435 215.462 9.55 218.417 9.665 221.372 C9.699 222.221 9.734 223.071 9.769 223.946 C9.974 229.302 10.029 234.641 10 240 C10.708 240.255 11.415 240.51 12.145 240.773 C23.401 245.609 33.36 254.542 42.188 262.875 C63.084 281.984 88.993 291.308 117 293 C114.419 294.721 112.573 295.611 109.688 296.562 C108.949 296.811 108.21 297.06 107.449 297.316 C87.329 302.932 65.704 298.886 47.688 289.137 C37.338 283.279 28.415 275.321 19.297 267.758 C18.436 267.054 17.575 266.35 16.688 265.625 C15.928 264.999 15.169 264.372 14.387 263.727 C11.721 261.798 8.973 260.398 6 259 C12.898 279.139 23.468 294.792 42 306 C42.581 306.355 43.162 306.711 43.761 307.077 C55.04 313.913 66.296 318.428 79 322 C79 322.33 79 322.66 79 323 C56.606 324.085 38.952 317.714 21.932 302.812 C14.622 296.09 8.069 288.73 2.018 280.871 C-10.215 264.994 -24.416 251.42 -45 248 C-53.303 247.274 -60.52 248.164 -68 252 C-69.014 252.986 -70.018 253.983 -71 255 C-71.66 255 -72.32 255 -73 255 C-73 255.66 -73 256.32 -73 257 C-73.99 257 -74.98 257 -76 257 C-76.691 250.507 -74.971 246.17 -71 241 C-61.153 231.44 -50.349 226.601 -36.625 226.625 C-35.757 226.625 -34.888 226.625 -33.994 226.625 C-23.149 226.813 -13.229 229.56 -3 233 C-3.265 226.979 -3.531 220.959 -3.796 214.938 C-3.827 214.245 -3.857 213.552 -3.889 212.838 C-3.92 212.123 -3.952 211.408 -3.984 210.672 C-4.184 206.132 -4.384 201.592 -4.584 197.052 C-5.34 179.848 -6.105 162.645 -6.891 145.442 C-7.567 130.639 -8.22 115.836 -8.852 101.032 C-9.212 92.607 -9.584 84.183 -9.979 75.76 C-10.333 68.201 -10.667 60.642 -10.978 53.082 C-11.141 49.14 -11.313 45.2 -11.509 41.261 C-11.691 37.606 -11.846 33.95 -11.982 30.293 C-12.061 28.343 -12.167 26.394 -12.275 24.445 C-12.56 15.807 -11.059 8.697 -7 1 C-4.537 -0.231 -2.72 -0.072 0 0 Z "
     fill="#ffffff"
     transform="translate(288,365)"
     id="path34"
     style="fill:#478cbf;fill-opacity:1" />
  <path
     d="M0 0 C0.66 0.33 1.32 0.66 2 1 C2.975 11.477 -1.494 22.888 -8 31 C-12.698 35.484 -17.87 39.701 -24 42 C-24.66 41.67 -25.32 41.34 -26 41 C-25.539 40.597 -25.077 40.193 -24.602 39.777 C-14.89 30.738 -7.93 19.245 -3 7 C-2.398 5.603 -1.794 4.207 -1.188 2.812 C-0.796 1.884 -0.404 0.956 0 0 Z "
     fill="#ffffff"
     transform="translate(585,442)"
     id="path36"
     style="fill:#478cbf;fill-opacity:1" />
  <path
     d="M0 0 C-0.65 5.535 -3.106 7.435 -7.234 10.895 C-19.472 20.211 -33.603 26.76 -48 32 C-31.446 32.925 -14.868 29.421 1 25 C-0.624 37.746 -9 49.268 -18.742 57.324 C-34.123 68.74 -52.865 74.568 -71 80 C-86.065 84.526 -97.869 91.267 -110 101 C-125.46 112.789 -141.66 117.673 -161 116 C-171.48 114.558 -179.812 109.501 -188.879 104.371 C-196.123 100.324 -202.782 97.505 -211 96 C-211.886 95.831 -212.771 95.662 -213.684 95.488 C-220.031 94.567 -225.79 95.571 -232 97 C-232.509 92.167 -232.637 89.155 -229.562 85.25 C-223.308 78.743 -214.706 76.862 -206 76.562 C-193.976 76.482 -186.163 82.723 -177.012 89.816 C-167.801 96.494 -156.608 101.521 -145 100 C-131.975 97.481 -121.518 90.065 -111 82.375 C-96.778 72.268 -79.733 65.809 -62.688 62.625 C-61.793 62.457 -60.898 62.289 -59.976 62.116 C-53.612 61.031 -47.448 60.819 -41 61 C-44.234 57.208 -47.314 55.886 -52 54.312 C-53.217 53.896 -54.434 53.48 -55.688 53.051 C-71.459 48.048 -86.26 51.286 -100.938 58.062 C-109.754 62.632 -117.139 68.876 -124.68 75.273 C-133.181 82.362 -141.73 87.624 -153 88 C-152.278 87.505 -151.556 87.01 -150.812 86.5 C-144.856 81.206 -142.043 74.1 -139.188 66.812 C-134.04 54.211 -127.588 43.796 -118 34 C-117.313 33.194 -117.313 33.194 -116.613 32.372 C-115 31 -115 31 -111.219 31.031 C-109.645 31.18 -108.072 31.337 -106.5 31.5 C-74.234 33.941 -35.847 18.429 -8 3 C-2.28 0 -2.28 0 0 0 Z "
     fill="#ffffff"
     transform="translate(549,487)"
     id="path38"
     style="fill:#478cbf;fill-opacity:1" />
  <path
     d="M0 0 C13.882 12.861 24.267 35.368 26 54 C22.825 51.328 21.272 47.913 19.5 44.25 C19.162 43.566 18.824 42.881 18.475 42.176 C16.346 37.844 14.284 33.483 12.242 29.109 C11.767 28.098 11.292 27.087 10.803 26.046 C9.871 24.058 8.948 22.067 8.033 20.071 C5.264 14.163 2.153 9.039 -2 4 C-1.34 2.68 -0.68 1.36 0 0 Z "
     fill="#ffffff"
     transform="translate(572,504)"
     id="path40"
     style="fill:#478cbf;fill-opacity:1" />
  <path
     d="M0 0 C4.02 7.164 3.536 18.448 1.385 26.223 C-1.152 32.867 -4.805 38.128 -10 43 C-9.758 42.077 -9.515 41.154 -9.266 40.203 C-7.015 31.491 -5.077 22.757 -3.396 13.917 C-2.486 9.189 -1.398 4.608 0 0 Z "
     fill="#ffffff"
     transform="translate(568,536)"
     id="path42"
     style="fill:#478cbf;fill-opacity:1" />
  <path
     d="M0 0 C2.035 6.104 -2.724 13.251 -5.32 18.844 C-13.555 34.842 -24.223 46.112 -41.562 51.848 C-42.449 52.125 -43.336 52.402 -44.25 52.688 C-50.515 54.678 -56.434 57.333 -62.438 60 C-85.16 70.038 -85.16 70.038 -91 68 C-90.105 67.299 -89.211 66.597 -88.289 65.875 C-87.709 65.42 -87.129 64.964 -86.531 64.495 C-85.248 63.489 -83.963 62.483 -82.677 61.479 C-79.87 59.282 -77.09 57.076 -74.371 54.77 C-64.937 46.772 -54.324 41.749 -42.812 37.5 C-28.005 32.01 -16.426 22.873 -7.062 10.188 C-6.487 9.425 -5.911 8.663 -5.318 7.877 C-2.414 4.093 -2.414 4.093 0 0 Z "
     fill="#ffffff"
     transform="translate(550,540)"
     id="path44"
     style="fill:#478cbf;fill-opacity:1" />
  <path
     d="M0 0 C15.902 11.499 29.436 18.895 49.206 20.595 C40.802 27.621 28.589 27.357 18.206 26.595 C-1.098 24.182 -17.99 14.392 -33.981 3.908 C-48.529 -5.622 -63.565 -10.483 -80.989 -7.155 C-84.566 -6.198 -87.77 -4.813 -91.052 -3.112 C-91.627 -2.878 -92.202 -2.645 -92.794 -2.405 C-93.454 -2.735 -94.114 -3.065 -94.794 -3.405 C-86.231 -14.224 -75.853 -21.331 -62.044 -23.155 C-37.908 -24.908 -18.764 -13.655 0 0 Z "
     fill="#ffffff"
     transform="translate(759.7939453125,614.40478515625)"
     id="path46"
     style="fill:#478cbf;fill-opacity:1" />
  <path
     d="M0 0 C0.99 0.495 0.99 0.495 2 1 C-13.646 17.761 -36.699 37.765 -60.852 39.234 C-64.246 39.248 -67.611 39.18 -71 39 C-68.319 37.213 -65.694 35.94 -62.759 34.641 C-52.031 29.849 -42.293 23.76 -32.38 17.491 C-24.235 12.389 -15.803 7.812 -7.25 3.438 C-6.211 2.898 -6.211 2.898 -5.151 2.348 C-3.464 1.502 -1.735 0.743 0 0 Z "
     fill="#ffffff"
     transform="translate(507,610)"
     id="path48"
     style="fill:#478cbf;fill-opacity:1" />
  <path
     d="M0 0 C0.66 0.33 1.32 0.66 2 1 C-6.839 10.893 -17.796 16.715 -31.039 18.383 C-42.648 18.842 -52.892 15.06 -62 8 C-58.758 6.945 -56.672 7.107 -53.383 7.914 C-48.166 9.047 -43.204 9.385 -37.875 9.375 C-36.968 9.373 -36.06 9.372 -35.126 9.37 C-24.875 9.186 -7.562 7.562 0 0 Z "
     fill="#ffffff"
     transform="translate(434,614)"
     id="path50"
     style="fill:#478cbf;fill-opacity:1" />
  <path
     d="M0 0 C5.721 -0.206 11.274 0.38 16.918 1.281 C17.56 1.374 18.202 1.466 18.863 1.562 C33.164 4.072 46.14 11.853 58.688 18.77 C70.531 25.276 82.495 31.131 95.668 34.469 C96.844 34.774 98.019 35.08 99.23 35.395 C106.257 36.951 112.942 37.312 120.105 37.281 C121.008 37.285 121.911 37.289 122.842 37.293 C128.209 37.285 133.358 36.939 138.668 36.156 C131.784 44.516 120.17 48.805 109.668 50.156 C82.454 52.322 60.329 44.393 38.383 28.773 C20.856 16.316 2.321 11.216 -18.98 14.32 C-26.59 15.644 -33.721 18.32 -40.598 21.816 C-43.332 23.156 -43.332 23.156 -45.332 23.156 C-41.472 14.384 -31.579 9.185 -23.332 5.156 C-15.594 2.195 -8.23 0.551 0 0 Z "
     fill="#ffffff"
     transform="translate(645.33203125,629.84375)"
     id="path52"
     style="fill:#478cbf;fill-opacity:1" />
  <path
     d="M0 0 C6.548 4.905 12.181 10.904 17.867 16.758 C18.866 17.759 19.866 18.759 20.867 19.758 C14.02 17.923 8.979 15.095 3.367 10.82 C-2.22 6.596 -7.605 3.345 -14.133 0.758 C-14.133 0.098 -14.133 -0.562 -14.133 -1.242 C-9.313 -3.05 -4.384 -2.554 0 0 Z "
     fill="#ffffff"
     transform="translate(261.1328125,646.2421875)"
     id="path54"
     style="fill:#478cbf;fill-opacity:1" />
  <path
     d="M0 0 C2.31 0 4.62 0 7 0 C7 6.6 7 13.2 7 20 C5.68 20 4.36 20 3 20 C3 14.39 3 8.78 3 3 C2.01 3 1.02 3 0 3 C0 2.01 0 1.02 0 0 Z "
     fill="#ffffff"
     transform="translate(494,653)"
     id="path56"
     style="fill:#f1e4cb;fill-opacity:1" />
  <path
     d="M0 0 C40.59 0.99 40.59 0.99 82 2 C82.99 4.97 83.98 7.94 85 11 C85.385 12.115 85.771 13.23 86.168 14.379 C90.429 27.686 90.897 41.003 85 54 C83.363 55.855 83.363 55.855 82 57 C81.587 56.457 81.175 55.915 80.75 55.355 C75.833 49.264 72.101 46.662 64.352 45.656 C47.216 44.737 32.283 54.804 18 63 C18 59.739 18.699 58.262 20 55.312 C24.239 43.938 22.88 31.613 17.969 20.711 C13.801 12.515 7.885 5.731 0 1 C0 0.67 0 0.34 0 0 Z "
     fill="#ffffff"
     transform="translate(448,675)"
     id="path58"
     style="fill:#f1e4cb;fill-opacity:1" />
  <path
     d="M0 0 C2.991 2.242 6.018 4.434 9.052 6.617 C9.633 7.035 10.213 7.453 10.811 7.883 C15.273 11.058 19.849 13.846 24.74 16.304 C24.74 16.634 24.74 16.964 24.74 17.304 C11.453 16.83 -0.886 10.064 -12.823 4.742 C-39.407 -7.069 -64.298 -13.21 -92.713 -3.403 C-95.26 -2.696 -95.26 -2.696 -97.26 -3.696 C-69.075 -31.21 -28.02 -21.073 0 0 Z "
     fill="#ffffff"
     transform="translate(668.26025390625,698.69580078125)"
     id="path60"
     style="fill:#478cbf;fill-opacity:1" />
  <path
     d="M0 0 C2.673 1.314 5.283 2.698 7.871 4.172 C20.904 11.543 33.095 18.28 48 21 C48.956 21.193 49.913 21.387 50.898 21.586 C61.81 23.562 72.941 23.651 84 24 C81.831 26.169 80.561 26.64 77.688 27.562 C76.928 27.811 76.169 28.06 75.387 28.316 C57.769 33.362 37.897 29.355 22 21 C13.818 15.957 3.943 9.071 0 0 Z "
     fill="#ffffff"
     transform="translate(673,679)"
     id="path62"
     style="fill:#478cbf;fill-opacity:1" />
  <path
     d="M0 0 C18.634 8.95 37.887 16.128 58.819 15.994 C59.556 15.992 60.293 15.99 61.052 15.988 C66.569 15.944 71.967 15.564 77.444 14.869 C74.139 17.668 70.828 19.003 66.757 20.431 C65.598 20.845 64.439 21.259 63.245 21.685 C33.83 30.845 3.812 22.155 -23.573 10.722 C-43.673 2.341 -62.535 -3.779 -84.392 1.529 C-86.76 1.901 -88.295 1.607 -90.556 0.869 C-64.722 -28.044 -29.387 -14.119 0 0 Z "
     fill="#ffffff"
     transform="translate(311.5556640625,708.131103515625)"
     id="path64"
     style="fill:#478cbf;fill-opacity:1" />
  <path
     d="M0 0 C3.3 0 6.6 0 10 0 C10 0.99 10 1.98 10 3 C9.01 3.66 8.02 4.32 7 5 C6.15 7.896 6.15 7.896 5.625 11.312 C1.782 30.933 1.782 30.933 -4 35 C-5.938 35.109 -5.938 35.109 -8 34.75 C-8.681 34.642 -9.361 34.533 -10.062 34.422 C-12 34 -12 34 -15 33 C-22.443 32.459 -29.25 32.915 -36.527 34.491 C-44.504 36.097 -52.245 36.436 -60.387 36.398 C-61.787 36.4 -63.187 36.403 -64.587 36.407 C-67.483 36.412 -70.38 36.405 -73.276 36.391 C-76.979 36.374 -80.682 36.384 -84.385 36.402 C-87.259 36.413 -90.134 36.409 -93.009 36.401 C-94.375 36.399 -95.742 36.402 -97.108 36.409 C-99.009 36.417 -100.91 36.403 -102.811 36.388 C-104.428 36.385 -104.428 36.385 -106.077 36.381 C-110.754 35.771 -113.251 33.968 -116.102 30.281 C-118.139 26.76 -119.834 23.259 -121.375 19.5 C-121.66 18.862 -121.945 18.224 -122.238 17.566 C-123.619 14.206 -124.055 12.261 -123.293 8.676 C-121.636 5.246 -120.316 3.905 -117 2 C-114.005 1.402 -111.049 1.133 -108 1 C-107.67 2.65 -107.34 4.3 -107 6 C-108.98 7.32 -110.96 8.64 -113 10 C-112.238 13.963 -111.616 16.4 -108.688 19.25 C-99.314 24.629 -86.481 25.14 -75.902 25.238 C-75.039 25.248 -74.175 25.258 -73.286 25.268 C-70.503 25.293 -67.72 25.305 -64.938 25.312 C-63.992 25.315 -63.046 25.318 -62.071 25.32 C-48.007 25.325 -34.647 24.681 -21 21 C-19.661 20.673 -18.323 20.346 -16.984 20.02 C-11.045 18.417 -6.62 17.118 -3 12 C-0.973 8.149 -0.505 4.297 0 0 Z "
     fill="#ffffff"
     transform="translate(555,717)"
     id="path66"
     style="fill:#f1e4cb;fill-opacity:1" />
  <path
     d="M0 0 C1.32 0.33 2.64 0.66 4 1 C4 4.63 4 8.26 4 12 C2.68 12 1.36 12 0 12 C0 8.04 0 4.08 0 0 Z "
     fill="#ffffff"
     transform="translate(497,727)"
     id="path68"
     style="fill:#f1e4cb;fill-opacity:1" />
  <path
     d="M0 0 C23.535 7.53 46.73 10.991 71.426 6.438 C74.024 6.006 76.435 5.923 79.062 6 C73.219 11.133 66.268 13.417 59.062 16 C58.125 16.347 57.188 16.694 56.223 17.051 C35.751 23.394 15.443 17.543 -3.994 10.938 C-30.546 1.927 -54.242 1.015 -81.791 6.746 C-83.938 7 -83.938 7 -86.938 6 C-56.523 -9.242 -32.313 -10.388 0 0 Z "
     fill="#ffffff"
     transform="translate(685.9375,740)"
     id="path70"
     style="fill:#478cbf;fill-opacity:1" />
  <path
     d="M0 0 C7.064 1.556 14.102 2.855 21.279 3.778 C21.279 4.108 21.279 4.438 21.279 4.778 C5.802 8.167 -10.412 5.634 -25.733 2.708 C-38.001 0.407 -50.269 -0.548 -62.721 -1.222 C-62.391 -1.882 -62.061 -2.542 -61.721 -3.222 C-40.517 -9.036 -20.902 -4.641 0 0 Z "
     fill="#ffffff"
     transform="translate(311.720703125,757.22216796875)"
     id="path72"
     style="fill:#478cbf;fill-opacity:1" />
  <path
     d="M0 0 C11.063 -0.568 22.409 3.335 32.59 7.359 C39.364 9.776 45.857 9.692 52.797 8.191 C63.5 6.084 75.171 6.599 85.922 8.191 C82.925 9.815 80.04 10.804 76.746 11.664 C75.753 11.924 74.76 12.184 73.736 12.451 C72.188 12.849 72.188 12.849 70.609 13.254 C69.589 13.523 68.569 13.791 67.518 14.068 C48.742 18.935 32.173 17.686 13.754 12.258 C-1.515 7.856 -18.421 10.327 -34.078 11.191 C-34.408 10.531 -34.738 9.871 -35.078 9.191 C-31.989 8.241 -28.899 7.291 -25.809 6.344 C-23.391 5.597 -20.977 4.84 -18.566 4.07 C-12.324 2.091 -6.528 0.601 0 0 Z "
     fill="#ffffff"
     transform="translate(413.078125,752.80859375)"
     id="path74"
     style="fill:#478cbf;fill-opacity:1" />
  <path
     d="M0 0 C7.95 -0.403 14.629 1.78 21.982 4.514 C25.974 5.966 30.017 7.271 34.051 8.602 C35.602 9.118 37.153 9.635 38.703 10.152 C39.828 10.527 40.954 10.903 42.113 11.289 C40.113 13.289 40.113 13.289 38.192 13.555 C32.19 13.515 26.464 12.827 20.544 11.866 C3.299 9.067 -13.456 8.842 -30.887 9.289 C-23.762 2.164 -9.542 0.955 0 0 Z "
     fill="#ffffff"
     transform="translate(534.88671875,756.7109375)"
     id="path76"
     style="fill:#478cbf;fill-opacity:1" />
  <path
     d="M0 0 C7.938 -0.319 15.664 0.532 23.517 1.599 C25.589 1.879 27.662 2.141 29.736 2.402 C31.694 2.663 31.694 2.663 33.691 2.93 C35.473 3.165 35.473 3.165 37.291 3.406 C38.185 3.602 39.079 3.798 40 4 C40.495 4.99 40.495 4.99 41 6 C27.08 8.308 12.193 8.783 0 1 C0 0.67 0 0.34 0 0 Z "
     fill="#ffffff"
     transform="translate(570,758)"
     id="path78"
     style="fill:#478cbf;fill-opacity:1" />
  <path
     d="M0 0 C8.378 6.054 14.096 14.4 16.281 24.648 C17.079 37.85 16.638 49.201 7.902 59.875 C-1.025 69.642 -11.537 73.908 -24.594 74.961 C-37.358 74.523 -48.278 69.047 -56.965 59.852 C-64.441 50.461 -66.862 39.425 -65.719 27.648 C-64.061 19.586 -61.323 11.846 -55.719 5.648 C-55.059 5.648 -54.399 5.648 -53.719 5.648 C-53.719 4.988 -53.719 4.328 -53.719 3.648 C-38.274 -9.733 -17.119 -11.105 0 0 Z M-41.641 16.879 C-46.941 24.615 -47.564 31.349 -46.719 40.648 C-44.771 47.783 -41.131 51.779 -34.902 55.59 C-29.375 58.27 -23.255 58.614 -17.344 57 C-10.911 54.457 -6.667 50.752 -3.688 44.477 C-0.608 36.209 -1.144 29.401 -4.316 21.273 C-7.447 15.412 -12.466 11.701 -18.719 9.648 C-27.411 8.38 -35.726 10.015 -41.641 16.879 Z "
     fill="#ffffff"
     transform="translate(284.71875,801.3515625)"
     id="path80"
     style="fill:#a8e9fd;fill-opacity:1" />
  <path
     d="M0 0 C-1.099 1.774 -2.205 3.544 -3.312 5.312 C-3.927 6.299 -4.542 7.285 -5.176 8.301 C-6.663 10.502 -8.04 12.233 -10 14 C-10.675 13.651 -11.351 13.301 -12.047 12.941 C-12.939 12.486 -13.831 12.031 -14.75 11.562 C-15.632 11.11 -16.513 10.658 -17.422 10.191 C-21.552 8.283 -24.958 7.844 -29.5 7.812 C-30.438 7.798 -31.377 7.784 -32.344 7.77 C-35.11 8.01 -36.711 8.445 -39 10 C-40.171 12.86 -40.171 12.86 -40 16 C-37.311 19.341 -34.997 20.626 -30.895 21.711 C-29.91 21.987 -28.926 22.263 -27.912 22.547 C-25.866 23.094 -23.819 23.638 -21.771 24.18 C-13.906 26.39 -5.893 29.285 -1.5 36.625 C1.6 43.601 2.011 49.795 -0.5 57.062 C-3.334 63.572 -8.178 67.87 -14.562 70.875 C-29.501 75.764 -44.94 72.482 -58.672 65.598 C-61 64 -61 64 -63 60 C-60.03 56.04 -57.06 52.08 -54 48 C-50.02 49.592 -46.161 51.288 -42.281 53.098 C-38.032 54.778 -33.981 55.156 -29.438 55.188 C-28.043 55.209 -28.043 55.209 -26.621 55.23 C-23.874 54.989 -22.266 54.561 -20 53 C-19.315 50.258 -19 47.82 -19 45 C-23.328 43.505 -27.642 42.08 -32.066 40.898 C-50.96 35.795 -50.96 35.795 -57 27.125 C-59.947 21.761 -60.561 16.843 -59.312 10.875 C-57.1 3.422 -51.931 -2.287 -45.168 -6.008 C-29.692 -12.953 -14.036 -7.69 0 0 Z "
     fill="#ffffff"
     transform="translate(554,803)"
     id="path82"
     style="fill:#a8e9fd;fill-opacity:1" />
  <path
     d="M0 0 C-1.548 3.347 -3.491 6.247 -5.625 9.25 C-6.257 10.142 -6.888 11.034 -7.539 11.953 C-8.021 12.629 -8.503 13.304 -9 14 C-9.748 13.651 -10.495 13.301 -11.266 12.941 C-12.25 12.486 -13.235 12.031 -14.25 11.562 C-15.225 11.11 -16.199 10.658 -17.203 10.191 C-21.451 8.382 -24.881 7.844 -29.5 7.812 C-30.438 7.798 -31.377 7.784 -32.344 7.77 C-35.111 8.01 -36.714 8.438 -39 10 C-40.082 12.91 -40.082 12.91 -40 16 C-37.872 18.785 -35.573 19.746 -32.312 20.875 C-31.343 21.217 -30.374 21.558 -29.375 21.91 C-26.92 22.703 -24.484 23.435 -22 24.121 C-12.449 26.803 -5.393 29.487 0 38.25 C2.05 45.937 2.056 53.962 -2 61 C-4.5 63.812 -4.5 63.812 -7 66 C-7.469 66.507 -7.938 67.013 -8.422 67.535 C-14.182 72.882 -23.902 73.346 -31.367 73.207 C-42.814 72.307 -52.126 68.477 -62 63 C-62 59.241 -60.966 58.366 -58.625 55.5 C-56.629 53.036 -54.761 50.642 -53 48 C-48.99 49.552 -45.09 51.304 -41.184 53.098 C-34.775 55.746 -27.37 56.189 -20.812 53.875 C-18.671 52.049 -18.671 52.049 -18.688 48.812 C-18.842 47.42 -18.842 47.42 -19 46 C-25.707 42.386 -32.323 40.311 -39.666 38.377 C-47.936 36.058 -53.63 32.731 -58 25 C-60.016 18.953 -60.121 11.576 -57.5 5.688 C-53.509 -1.082 -47.333 -5.51 -40 -8 C-25.456 -11.375 -12.726 -6.972 0 0 Z "
     fill="#ffffff"
     transform="translate(634,803)"
     id="path84"
     style="fill:#a8e9fd;fill-opacity:1" />
  <path
     d="M0 0 C51.266 0 51.266 0 65.66 13.352 C74.304 23.135 75.83 34.238 75.218 46.753 C74.308 56.138 68.908 63.892 62 70 C49.06 79.802 35.319 79.395 19.812 79.188 C13.274 79.126 6.736 79.064 0 79 C0 52.93 0 26.86 0 0 Z M18 17 C18 32.18 18 47.36 18 63 C35.39 64.122 35.39 64.122 49.816 57.527 C54.703 52.547 56.785 46.31 57.129 39.418 C56.777 32.479 54.327 27.432 49.512 22.465 C39.94 13.982 31.859 17 18 17 Z "
     fill="#ffffff"
     transform="translate(320,795)"
     id="path86"
     style="fill:#a8e9fd;fill-opacity:1" />
  <path
     d="M0 0 C7.243 -1.535 14.952 -2.786 22 0 C28.002 5.726 31.409 13.623 34.723 21.116 C36.833 26.948 36.833 26.948 41 31 C41.208 30.229 41.415 29.458 41.629 28.664 C43.531 23.58 46.216 19.06 48.938 14.375 C49.476 13.434 50.014 12.493 50.568 11.523 C53.516 6.406 53.516 6.406 55 4 C55.448 3.25 55.897 2.499 56.359 1.726 C58 0 58 0 60.36 -0.454 C61.266 -0.433 62.172 -0.412 63.105 -0.391 C64.58 -0.371 64.58 -0.371 66.084 -0.352 C67.108 -0.318 68.132 -0.285 69.188 -0.25 C70.741 -0.223 70.741 -0.223 72.326 -0.195 C74.885 -0.148 77.442 -0.082 80 0 C76.222 7.264 72.059 14.229 67.75 21.188 C67.189 22.111 66.627 23.034 66.049 23.986 C63.528 28.101 61.025 32.084 57.969 35.824 C48.053 48.454 49.673 63.67 50 79 C43.4 79 36.8 79 30 79 C30.102 77.041 30.204 75.081 30.309 73.062 C30.804 54.064 27.807 42.46 16.119 26.889 C12.509 21.968 9.311 16.789 6.062 11.625 C5.454 10.685 4.845 9.744 4.218 8.775 C3.663 7.913 3.107 7.052 2.535 6.164 C2.044 5.406 1.553 4.647 1.047 3.866 C0 2 0 2 0 0 Z "
     fill="#ffffff"
     transform="translate(403,795)"
     id="path88"
     style="fill:#a8e9fd;fill-opacity:1" />
  <path
     d="M0 0 C18.48 0 36.96 0 56 0 C56 5.61 56 11.22 56 17 C43.79 17.33 31.58 17.66 19 18 C19 22.29 19 26.58 19 31 C34.84 31.495 34.84 31.495 51 32 C51 36.95 51 41.9 51 47 C35.16 47.495 35.16 47.495 19 48 C19 50.97 19 53.94 19 57 C18.67 58.98 18.34 60.96 18 63 C31.2 63 44.4 63 58 63 C58 68.28 58 73.56 58 79 C38.86 79 19.72 79 0 79 C0 52.93 0 26.86 0 0 Z "
     fill="#ffffff"
     transform="translate(656,795)"
     id="path90"
     style="fill:#a8e9fd;fill-opacity:1" />
  <path
     d="M0 0 C19.31 -2.105 19.31 -2.105 24.891 2.262 C26.565 5.065 27.906 7.832 29.096 10.872 C30.865 15.037 33.254 18.891 35.5 22.812 C37.009 25.537 38.504 28.269 40 31 C42.251 27.146 44.5 23.292 46.75 19.438 C47.384 18.351 48.018 17.265 48.672 16.146 C49.291 15.086 49.909 14.026 50.547 12.934 C51.395 11.48 51.395 11.48 52.261 9.998 C54.189 6.674 56.094 3.336 58 0 C65.26 0 72.52 0 80 0 C78.54 3.651 77.216 6.496 75.199 9.781 C74.64 10.694 74.081 11.607 73.505 12.547 C72.605 14.009 72.605 14.009 71.688 15.5 C71.072 16.525 70.456 17.551 69.822 18.607 C66.801 23.607 63.73 28.458 60.219 33.129 C49.421 47.939 49.276 61.302 50 79 C43.4 79 36.8 79 30 79 C30.113 77.064 30.227 75.128 30.344 73.133 C30.943 53.366 27.124 41.294 15.17 24.991 C12.379 21.144 9.799 17.18 7.228 13.184 C6.102 11.435 4.964 9.694 3.812 7.962 C3.307 7.201 2.802 6.44 2.281 5.656 C1.838 4.994 1.396 4.332 0.939 3.65 C0 2 0 2 0 0 Z "
     fill="#ffffff"
     transform="translate(728,795)"
     id="path92"
     style="fill:#a8e9fd;fill-opacity:1" />
  <path
     d="M0 0 C4.776 3.682 7.506 7.946 9.012 13.781 C9.953 21.15 9.65 27.757 5.012 33.781 C-0.791 40.017 -5.807 42.768 -14.363 43.156 C-21.221 43.016 -25.511 40.808 -30.738 36.531 C-36.166 29.897 -37.677 24.559 -37.367 15.902 C-36.518 8.91 -33.404 4.343 -27.91 0.035 C-18.964 -5.802 -9.074 -5.562 0 0 Z M-22.988 7.781 C-26.517 11.4 -27.282 14.372 -27.488 19.281 C-27.288 24.185 -26.458 27.129 -22.988 30.781 C-18.678 33.889 -15.207 34.207 -10.105 33.426 C-6.069 32.197 -3.944 29.414 -1.879 25.887 C0.107 21.192 -0.549 16.237 -1.988 11.469 C-4.667 7.869 -7.746 6.166 -11.988 4.781 C-16.58 4.781 -18.956 5.621 -22.988 7.781 Z "
     fill="#ffffff"
     transform="translate(650.98828125,902.21875)"
     id="path94"
     style="fill:#a8e9fd;fill-opacity:1" />
  <path
     d="M0 0 C10.56 0 21.12 0 32 0 C32 2.97 32 5.94 32 9 C24.74 9 17.48 9 10 9 C10 12.3 10 15.6 10 19 C11.288 18.988 12.576 18.977 13.902 18.965 C15.581 18.955 17.259 18.946 18.938 18.938 C20.213 18.925 20.213 18.925 21.514 18.912 C22.323 18.909 23.131 18.906 23.965 18.902 C24.714 18.897 25.463 18.892 26.234 18.886 C28 19 28 19 29 20 C29.125 23.5 29.125 23.5 29 27 C28 28 28 28 24.184 28.098 C22.602 28.092 21.019 28.079 19.438 28.062 C16.653 28.042 13.869 28.021 11 28 C10.67 33.61 10.34 39.22 10 45 C6.7 45 3.4 45 0 45 C0 30.15 0 15.3 0 0 Z "
     fill="#ffffff"
     transform="translate(250,899)"
     id="path96"
     style="fill:#a8e9fd;fill-opacity:1" />
  <path
     d="M0 0 C3.816 -0.062 7.631 -0.124 11.562 -0.188 C13.346 -0.228 13.346 -0.228 15.166 -0.27 C22.47 -0.327 27.684 0.12 33.375 5.062 C37.084 9.485 36.433 14.468 36 20 C34.199 24.703 31.131 26.319 27 29 C27.722 30.071 28.444 31.142 29.188 32.246 C30.125 33.643 31.063 35.04 32 36.438 C32.477 37.145 32.954 37.852 33.445 38.58 C33.896 39.254 34.348 39.927 34.812 40.621 C35.231 41.244 35.65 41.867 36.082 42.51 C37 44 37 44 37 45 C33.015 46.023 29.947 46.268 26 45 C23.282 42.185 21.385 38.847 19.526 35.424 C19.15 34.749 18.774 34.074 18.387 33.379 C18.069 32.756 17.752 32.133 17.425 31.49 C15.638 29.324 15.638 29.324 10 29 C10 34.28 10 39.56 10 45 C6.7 45 3.4 45 0 45 C0 30.15 0 15.3 0 0 Z M10 9 C10 12.63 10 16.26 10 20 C12.291 20.054 14.583 20.093 16.875 20.125 C18.151 20.148 19.427 20.171 20.742 20.195 C24.086 20.356 24.086 20.356 26 18 C26.333 14.5 26.333 14.5 26 11 C24.086 8.644 24.086 8.644 20.742 8.805 C18.828 8.839 18.828 8.839 16.875 8.875 C15.594 8.893 14.312 8.911 12.992 8.93 C12.005 8.953 11.017 8.976 10 9 Z "
     fill="#ffffff"
     transform="translate(299,899)"
     id="path98"
     style="fill:#a8e9fd;fill-opacity:1" />
  <path
     d="M0 0 C3.3 0 6.6 0 10 0 C12.568 6.085 15.131 12.173 17.69 18.262 C18.562 20.334 19.435 22.406 20.31 24.478 C21.564 27.45 22.814 30.424 24.062 33.398 C24.456 34.329 24.85 35.259 25.256 36.217 C25.796 37.508 25.796 37.508 26.348 38.826 C26.667 39.585 26.987 40.345 27.317 41.127 C28 43 28 43 28 45 C24.7 45 21.4 45 18 45 C14 37.25 14 37.25 14 35 C8.06 35 2.12 35 -4 35 C-4.99 38.3 -5.98 41.6 -7 45 C-10.63 45 -14.26 45 -18 45 C-15.636 37.478 -12.676 30.302 -9.562 23.062 C-6.286 15.408 -3.059 7.745 0 0 Z M5 13 C4.162 14.79 3.33 16.582 2.5 18.375 C2.036 19.373 1.572 20.37 1.094 21.398 C-0.129 23.837 -0.129 23.837 0 26 C3.3 26 6.6 26 10 26 C9.548 24.394 9.088 22.79 8.625 21.188 C8.37 20.294 8.115 19.401 7.852 18.48 C7.047 15.795 7.047 15.795 5 13 Z "
     fill="#ffffff"
     transform="translate(369,899)"
     id="path100"
     style="fill:#a8e9fd;fill-opacity:1" />
  <path
     d="M0 0 C3.63 0 7.26 0 11 0 C15.29 7.59 19.58 15.18 24 23 C26.107 20.191 27.789 17.739 29.445 14.707 C29.882 13.912 30.319 13.118 30.77 12.299 C31.44 11.068 31.44 11.068 32.125 9.812 C33.022 8.172 33.92 6.533 34.82 4.895 C35.215 4.171 35.61 3.448 36.016 2.702 C37 1 37 1 38 0 C41.63 0 45.26 0 49 0 C49 14.85 49 29.7 49 45 C45.7 45 42.4 45 39 45 C38.67 36.09 38.34 27.18 38 18 C34.37 24.6 30.74 31.2 27 38 C25.35 38 23.7 38 22 38 C20.546 36.503 20.546 36.503 19.395 34.422 C18.755 33.298 18.755 33.298 18.104 32.152 C17.677 31.36 17.251 30.567 16.812 29.75 C16.156 28.584 16.156 28.584 15.486 27.395 C13.568 23.967 11.757 20.514 10 17 C9.67 26.24 9.34 35.48 9 45 C6.03 45 3.06 45 0 45 C-1.091 40.593 -1.145 36.288 -1.133 31.777 C-1.134 30.995 -1.135 30.212 -1.136 29.406 C-1.136 27.758 -1.135 26.11 -1.13 24.462 C-1.125 21.942 -1.13 19.423 -1.137 16.904 C-1.136 15.299 -1.135 13.695 -1.133 12.09 C-1.135 11.339 -1.137 10.588 -1.139 9.814 C-1.123 6.3 -0.86 3.438 0 0 Z "
     fill="#ffffff"
     transform="translate(415,899)"
     id="path102"
     style="fill:#a8e9fd;fill-opacity:1" />
  <path
     d="M0 0 C10.56 0 21.12 0 32 0 C32 2.97 32 5.94 32 9 C24.74 9 17.48 9 10 9 C10 11.97 10 14.94 10 18 C16.27 18 22.54 18 29 18 C29 20.64 29 23.28 29 26 C28 27 28 27 26.234 27.114 C25.485 27.108 24.736 27.103 23.965 27.098 C23.156 27.094 22.347 27.091 21.514 27.088 C20.664 27.08 19.813 27.071 18.938 27.062 C18.083 27.058 17.229 27.053 16.35 27.049 C14.233 27.037 12.117 27.019 10 27 C10 29.97 10 32.94 10 36 C10.661 35.995 11.322 35.99 12.004 35.984 C14.982 35.963 17.96 35.95 20.938 35.938 C21.978 35.929 23.019 35.921 24.092 35.912 C25.081 35.909 26.071 35.906 27.09 35.902 C28.006 35.897 28.923 35.892 29.867 35.886 C32 36 32 36 33 37 C33 39.64 33 42.28 33 45 C22.11 45 11.22 45 0 45 C0 30.15 0 15.3 0 0 Z "
     fill="#ffffff"
     transform="translate(485,899)"
     id="path104"
     style="fill:#a8e9fd;fill-opacity:1" />
  <path
     d="M0 0 C3.63 0 7.26 0 11 0 C11.237 0.782 11.474 1.565 11.719 2.371 C12.788 5.894 13.863 9.416 14.938 12.938 C15.311 14.169 15.684 15.401 16.068 16.67 C16.426 17.84 16.784 19.01 17.152 20.215 C17.482 21.299 17.812 22.383 18.152 23.5 C18.765 25.912 18.765 25.912 20 27 C20.267 26.253 20.535 25.506 20.81 24.737 C22.018 21.366 23.228 17.995 24.438 14.625 C24.858 13.449 25.279 12.274 25.713 11.062 C26.116 9.941 26.519 8.82 26.934 7.664 C27.305 6.627 27.677 5.59 28.06 4.522 C29 2 29 2 30 0 C32.64 0 35.28 0 38 0 C41.872 8.849 45.051 17.815 48 27 C49.976 24.036 50.757 21.85 51.727 18.457 C52.036 17.384 52.345 16.311 52.664 15.205 C53.14 13.526 53.14 13.526 53.625 11.812 C53.95 10.681 54.275 9.55 54.609 8.385 C55.411 5.591 56.206 2.796 57 0 C60.63 0 64.26 0 68 0 C65.681 9.974 62.597 19.565 59.312 29.25 C58.796 30.785 58.28 32.32 57.764 33.855 C56.514 37.572 55.259 41.287 54 45 C50.7 45 47.4 45 44 45 C43.518 43.614 43.036 42.229 42.539 40.801 C41.901 38.971 41.263 37.142 40.625 35.312 C40.308 34.4 39.991 33.488 39.664 32.549 C39.355 31.663 39.045 30.776 38.727 29.863 C38.444 29.052 38.161 28.24 37.87 27.404 C37.258 25.712 36.593 24.04 35.892 22.384 C35 20 35 20 35 17 C34.34 17 33.68 17 33 17 C32.617 18.916 32.617 18.916 32.227 20.871 C31.06 26.12 29.29 31.046 27.375 36.062 C27.05 36.928 26.725 37.794 26.391 38.686 C25.599 40.792 24.8 42.896 24 45 C20.7 45 17.4 45 14 45 C12.004 38.753 10.011 32.505 8.019 26.256 C7.34 24.129 6.661 22.001 5.981 19.874 C5.007 16.824 4.035 13.773 3.062 10.723 C2.756 9.765 2.45 8.808 2.135 7.822 C1.714 6.501 1.714 6.501 1.285 5.153 C0.912 3.983 0.912 3.983 0.531 2.791 C0 1 0 1 0 0 Z "
     fill="#ffffff"
     transform="translate(533,899)"
     id="path106"
     style="fill:#a8e9fd;fill-opacity:1" />
  <path
     d="M0 0 C5.445 -0.093 5.445 -0.093 11 -0.188 C12.128 -0.215 13.256 -0.242 14.418 -0.27 C20.681 -0.322 25.336 0.262 31 3 C34.5 6.59 35.871 9.286 36.25 14.312 C35.886 19.685 34.38 22.721 30.438 26.375 C28 28 28 28 26 28 C26.333 28.479 26.666 28.959 27.01 29.453 C28.509 31.613 30.005 33.775 31.5 35.938 C32.025 36.692 32.549 37.447 33.09 38.225 C33.586 38.943 34.082 39.662 34.594 40.402 C35.055 41.067 35.515 41.732 35.99 42.418 C37 44 37 44 37 45 C33.104 45.786 29.87 46 26 45 C22.27 41.407 19.697 37.428 17 33 C16.34 32.01 15.68 31.02 15 30 C13.02 29.67 11.04 29.34 9 29 C9 34.28 9 39.56 9 45 C6.03 45 3.06 45 0 45 C0 30.15 0 15.3 0 0 Z M9 9 C9 12.63 9 16.26 9 20 C11.27 20.081 13.541 20.139 15.812 20.188 C17.709 20.24 17.709 20.24 19.645 20.293 C22.92 20.274 22.92 20.274 24.961 18.715 C26.744 15.773 25.769 13.196 25 10 C21.997 8.498 19.209 8.907 15.875 8.938 C14.594 8.947 13.312 8.956 11.992 8.965 C11.005 8.976 10.017 8.988 9 9 Z "
     fill="#ffffff"
     transform="translate(678,899)"
     id="path108"
     style="fill:#a8e9fd;fill-opacity:1" />
  <path
     d="M0 0 C3.3 0 6.6 0 10 0 C10.027 2.792 10.047 5.583 10.062 8.375 C10.071 9.169 10.079 9.963 10.088 10.781 C10.113 16.773 10.113 16.773 9 19 C9.66 19 10.32 19 11 19 C11.273 18.405 11.545 17.811 11.826 17.198 C12.968 15.06 14.123 13.584 15.785 11.836 C16.581 10.989 16.581 10.989 17.393 10.125 C17.944 9.548 18.495 8.97 19.062 8.375 C22.966 4.507 22.966 4.507 26 0 C29.96 0 33.92 0 38 0 C35.995 4.01 33.602 6.798 30.562 10 C25.884 14.698 25.884 14.698 22 20 C22.446 23.302 23.715 25.198 25.836 27.715 C26.406 28.401 26.975 29.088 27.562 29.795 C28.46 30.855 28.46 30.855 29.375 31.938 C36.529 40.459 36.529 40.459 39 45 C34.748 45.868 31.231 46.061 27 45 C21.554 40.863 17.742 34.614 14 29 C11.345 31.406 10.078 33.18 9.734 36.781 C9.749 39.53 9.827 42.257 10 45 C6.7 45 3.4 45 0 45 C0 30.15 0 15.3 0 0 Z "
     fill="#ffffff"
     transform="translate(734,899)"
     id="path110"
     style="fill:#a8e9fd;fill-opacity:1" />
</svg>
