<?xml version="1.0" encoding="UTF-8"?>
<!-- Generator: visioncortex VTracer 0.6.4 -->
<svg version="1.1" xmlns="http://www.w3.org/2000/svg" width="800" height="800">
<path d="M0 0 C2.81 1.794 4.509 3.019 6 6 C6.117 7.358 6.177 8.72 6.205 10.083 C6.225 10.923 6.245 11.764 6.266 12.63 C6.291 13.993 6.291 13.993 6.316 15.383 C6.337 16.312 6.358 17.242 6.379 18.199 C6.445 21.174 6.504 24.15 6.562 27.125 C6.606 29.139 6.649 31.154 6.693 33.168 C6.801 38.112 6.902 43.056 7 48 C7.872 48.115 8.743 48.23 9.642 48.348 C52.001 53.995 93.857 62.44 135.062 73.812 C135.736 73.995 136.41 74.178 137.105 74.367 C139.002 74.885 140.893 75.42 142.785 75.957 C143.846 76.256 144.907 76.555 146 76.863 C154.312 80.014 157.592 84.897 161.211 92.566 C171.062 116.128 175.279 143.591 176 169 C176.04 169.994 176.08 170.988 176.121 172.012 C176.903 207.913 167.707 247.503 145 276 C139.354 275.505 135.438 273.948 130.5 271.25 C119.169 265.379 107.681 261.993 95.25 259.312 C94.323 259.11 93.396 258.907 92.441 258.698 C73.124 254.75 53.952 254.747 34.312 254.875 C25.299 254.916 16.286 254.957 7 255 C7 279.09 7 303.18 7 328 C7.66 327.67 8.32 327.34 9 327 C10.477 326.817 11.96 326.686 13.445 326.583 C14.374 326.515 15.304 326.448 16.261 326.379 C17.277 326.309 18.293 326.24 19.34 326.168 C21.522 326.01 23.704 325.852 25.886 325.694 C27.037 325.612 28.187 325.529 29.372 325.445 C135.209 320.924 135.209 320.924 225 273.848 C234.452 262.583 236.678 248.486 239.5 234.5 C246.177 201.411 246.177 201.411 258.125 191 C263.015 187.826 268.416 188.124 274 189 C281.851 191.531 288.248 196.414 292.5 203.5 C293.407 208.035 292.914 211.614 290.359 215.488 C287.608 218.417 284.958 219.888 281.375 221.688 C276.858 223.889 276.858 223.889 273 227 C272.689 229.095 272.689 229.095 272.734 231.523 C272.731 232.451 272.727 233.378 272.723 234.334 C272.736 235.839 272.736 235.839 272.75 237.375 C272.754 238.417 272.758 239.459 272.762 240.533 C272.832 246.919 273.234 253.164 274 259.5 C278.543 298.502 274.277 342.684 250 375 C237.158 390.932 218.13 408.213 197 411 C177.633 412.704 160.841 406.862 143.034 400.061 C107.24 386.477 79.678 390.973 45.062 405.25 C16.053 417.04 -7.503 411.981 -36 402 C-72.799 389.159 -99.846 388.127 -136.164 402.758 C-153.904 409.752 -169.464 407.501 -186.938 400.875 C-203.769 393.477 -218.709 381.509 -232 369 C-232.663 368.402 -233.325 367.804 -234.008 367.188 C-256.677 345.895 -270.463 313.33 -271.469 282.479 C-271.642 266.781 -268.647 253.305 -257.641 241.461 C-250.057 234.23 -244.051 230.847 -233.5 230.5 C-223.857 230.799 -217.75 233.613 -210.727 240.133 C-206.304 244.915 -204.236 249.878 -203.75 256.312 C-204.14 262.064 -205.792 265.648 -209.625 269.938 C-213.879 272.537 -217.129 273.141 -222 272 C-225.923 268.681 -226.863 264.833 -228 260 C-232.583 258.79 -232.583 258.79 -236.812 260.188 C-241.79 267.784 -241.002 277.724 -239.348 286.434 C-235.561 298.93 -227.896 307.788 -216.688 314.125 C-194.615 325.579 -169.31 327.597 -144.832 329.07 C-144.112 329.114 -143.392 329.157 -142.65 329.202 C-124.962 330.238 -107.28 330.306 -89.567 330.261 C-85.073 330.249 -80.579 330.256 -76.086 330.268 C-72.51 330.275 -68.934 330.273 -65.359 330.268 C-63.705 330.266 -62.052 330.268 -60.398 330.273 C-44.823 330.308 -29.614 329.077 -14 328 C-14 304.9 -14 281.8 -14 258 C-31.594 261.307 -31.594 261.307 -49 265.312 C-50.778 265.764 -50.778 265.764 -52.591 266.224 C-75.694 272.201 -98.382 280.447 -119.324 291.976 C-122.419 293.16 -123.884 293.007 -127 292 C-128.812 290.875 -128.812 290.875 -130 289 C-130.907 282.192 -128.338 278.711 -124.625 273.375 C-99.387 235.218 -91.015 188.871 -100 144 C-106.069 115.066 -118.613 80.77 -143.828 63.008 C-147.261 60.823 -150.746 58.74 -154.25 56.672 C-156.188 55.438 -156.188 55.438 -159 53 C-159.688 49.875 -159.688 49.875 -159 47 C-155.663 43.614 -152.292 43.376 -147.688 42.875 C-146.413 42.728 -145.138 42.581 -143.824 42.43 C-142.217 42.279 -140.609 42.137 -139 42 C-137.452 41.868 -137.452 41.868 -135.872 41.732 C-124.709 40.882 -113.566 40.76 -102.375 40.75 C-101.366 40.748 -100.357 40.747 -99.318 40.745 C-83.733 40.743 -68.235 41.299 -52.688 42.375 C-51.77 42.438 -50.852 42.501 -49.907 42.566 C-37.902 43.411 -25.951 44.584 -14 46 C-14.021 44.814 -14.042 43.629 -14.063 42.407 C-14.136 38 -14.182 33.593 -14.22 29.185 C-14.24 27.279 -14.267 25.373 -14.302 23.467 C-14.35 20.724 -14.373 17.982 -14.391 15.238 C-14.411 14.389 -14.432 13.54 -14.453 12.665 C-14.455 8.573 -14.333 6.528 -12.101 2.985 C-8.455 -0.46 -4.862 -0.699 0 0 Z " fill="#f1e4cb" transform="translate(371,56)"/>
<path d="M0 0 C1.054 0.001 2.109 0.002 3.195 0.002 C9.754 0.053 16.23 0.337 22.75 1.062 C23.456 1.141 24.162 1.219 24.89 1.3 C35.778 2.672 35.778 2.672 39.711 5.793 C41.228 9.512 40.203 12.73 39.312 16.5 C39.127 17.344 38.941 18.189 38.75 19.059 C38.324 20.987 37.889 22.913 37.447 24.838 C36.743 27.941 36.069 31.048 35.406 34.159 C34.806 36.97 34.195 39.779 33.582 42.587 C33.278 43.983 32.977 45.379 32.679 46.776 C32.253 48.759 31.812 50.739 31.371 52.719 C31.119 53.869 30.867 55.02 30.607 56.205 C29.654 59.297 29.09 61.02 26.688 63.188 C24.166 63.795 22 64.132 19.441 64.336 C18.33 64.445 18.33 64.445 17.197 64.556 C14.695 64.792 12.193 64.994 9.688 65.188 C8.791 65.258 7.894 65.329 6.969 65.402 C0.191 65.926 -6.591 66.375 -13.375 66.812 C-15.417 66.948 -17.46 67.083 -19.502 67.219 C-24.439 67.546 -29.375 67.868 -34.312 68.188 C-34.589 69.049 -34.865 69.91 -35.15 70.797 C-36.276 74.082 -37.551 77.241 -38.914 80.434 C-39.649 82.184 -39.649 82.184 -40.398 83.971 C-41.424 86.406 -42.458 88.839 -43.5 91.268 C-43.987 92.436 -44.475 93.605 -44.977 94.809 C-45.425 95.865 -45.873 96.921 -46.334 98.01 C-47.434 101.581 -47.568 104.47 -47.312 108.188 C-46.176 110.336 -46.176 110.336 -44.375 112 C-43.734 112.669 -43.094 113.338 -42.434 114.027 C-41.384 115.097 -41.384 115.097 -40.312 116.188 C-38.848 117.807 -37.39 119.432 -35.938 121.062 C-34.791 122.333 -34.791 122.333 -33.621 123.629 C-32.131 125.28 -30.644 126.934 -29.16 128.59 C-25.86 132.272 -22.548 135.942 -19.184 139.566 C-18.646 140.146 -18.108 140.726 -17.554 141.323 C-16.5 142.458 -15.444 143.591 -14.385 144.722 C-13.014 146.197 -11.662 147.692 -10.312 149.188 C-9.681 149.85 -9.049 150.513 -8.398 151.195 C-7.312 153.188 -7.312 153.188 -7.312 156.082 C-8.534 159.876 -10.553 162.127 -13.312 164.875 C-14.323 165.926 -15.331 166.979 -16.336 168.035 C-16.84 168.561 -17.343 169.087 -17.862 169.629 C-20.005 171.931 -21.97 174.361 -23.938 176.812 C-27.563 181.313 -31.334 185.633 -35.254 189.879 C-37.311 192.118 -37.311 192.118 -38.965 194.402 C-39.694 195.379 -39.694 195.379 -40.438 196.375 C-40.832 196.946 -41.226 197.517 -41.633 198.105 C-43.911 199.573 -45.656 199.32 -48.255 198.818 C-52.484 197.522 -56.23 195.295 -60.062 193.125 C-61.467 192.347 -61.467 192.347 -62.9 191.553 C-68.508 188.421 -74.041 185.174 -79.547 181.867 C-80.152 181.504 -80.758 181.142 -81.382 180.768 C-84.364 178.979 -87.338 177.179 -90.3 175.357 C-91.387 174.699 -92.474 174.041 -93.594 173.363 C-94.553 172.775 -95.513 172.186 -96.502 171.579 C-99.565 170.062 -101.899 169.371 -105.312 169.188 C-107.546 170.005 -107.546 170.005 -109.492 171.512 C-110.249 172.04 -111.006 172.568 -111.786 173.113 C-112.578 173.694 -113.371 174.276 -114.188 174.875 C-115.012 175.465 -115.836 176.055 -116.685 176.663 C-118.391 177.889 -120.091 179.122 -121.787 180.362 C-124.199 182.106 -126.646 183.782 -129.113 185.445 C-130.577 186.462 -132.039 187.48 -133.5 188.5 C-134.189 188.954 -134.878 189.408 -135.587 189.876 C-136.212 190.325 -136.837 190.775 -137.48 191.238 C-138.03 191.616 -138.579 191.994 -139.145 192.384 C-141.989 196.778 -140.27 202.855 -139.303 207.682 C-138.845 209.761 -138.379 211.838 -137.906 213.914 C-137.662 215.021 -137.418 216.127 -137.166 217.267 C-136.39 220.784 -135.602 224.298 -134.812 227.812 C-134.024 231.334 -133.237 234.856 -132.459 238.379 C-131.975 240.567 -131.486 242.753 -130.99 244.937 C-128.793 254.857 -128.793 254.857 -129.312 259.188 C-134.323 263.872 -141.402 265.659 -147.75 267.938 C-148.936 268.368 -150.122 268.798 -151.344 269.241 C-153.794 270.127 -156.244 271.009 -158.696 271.887 C-162.135 273.124 -165.564 274.385 -168.992 275.652 C-171.036 276.394 -173.08 277.135 -175.125 277.875 C-176.066 278.226 -177.007 278.577 -177.976 278.938 C-178.857 279.251 -179.737 279.564 -180.645 279.887 C-181.405 280.163 -182.165 280.44 -182.948 280.725 C-186.091 281.34 -188.243 281.1 -191.312 280.188 C-193.096 278.246 -193.096 278.246 -194.594 275.625 C-195.18 274.627 -195.767 273.63 -196.371 272.602 C-197.012 271.475 -197.652 270.348 -198.312 269.188 C-199.05 267.943 -199.791 266.701 -200.535 265.461 C-203.399 260.683 -206.224 255.884 -209.051 251.085 C-216.11 236.351 -216.11 236.351 -226.312 225.188 C-228.89 225.253 -231.43 225.381 -234 225.562 C-234.767 225.611 -235.534 225.66 -236.323 225.711 C-239.885 225.941 -243.442 226.198 -247 226.48 C-264.522 227.83 -281.768 227.289 -299.25 225.625 C-300.937 225.478 -302.625 225.332 -304.312 225.188 C-305.426 225.084 -306.54 224.981 -307.688 224.875 C-311.339 225.31 -312.754 226.574 -315.312 229.188 C-316.734 231.407 -317.976 233.548 -319.188 235.875 C-323.268 243.409 -327.588 250.78 -332 258.125 C-332.63 259.178 -333.259 260.232 -333.908 261.317 C-343.644 277.519 -343.644 277.519 -347.312 281.188 C-353.363 280.868 -358.582 279.28 -364.238 277.203 C-365.067 276.906 -365.895 276.608 -366.748 276.302 C-368.492 275.674 -370.234 275.041 -371.974 274.405 C-374.604 273.445 -377.238 272.499 -379.873 271.555 C-403.444 263.056 -403.444 263.056 -407.312 259.188 C-407.504 251.753 -405.645 244.256 -404.027 237.043 C-403.807 236.03 -403.586 235.016 -403.359 233.972 C-402.662 230.772 -401.957 227.573 -401.25 224.375 C-400.314 220.141 -399.387 215.905 -398.465 211.668 C-398.249 210.705 -398.034 209.743 -397.812 208.751 C-396.332 202.036 -396.332 202.036 -396.312 195.188 C-400.37 189.838 -406.542 186.442 -412.062 182.75 C-413.014 182.107 -413.965 181.465 -414.945 180.803 C-416.83 179.531 -418.72 178.268 -420.615 177.012 C-422.363 175.83 -424.086 174.608 -425.775 173.343 C-430.395 169.939 -430.395 169.939 -435.98 169.086 C-439.607 170.285 -442.405 171.753 -445.625 173.812 C-446.924 174.625 -448.225 175.435 -449.527 176.242 C-450.633 176.93 -450.633 176.93 -451.761 177.632 C-456.443 180.487 -461.203 183.209 -465.956 185.942 C-467.651 186.916 -469.344 187.893 -471.036 188.87 C-473.153 190.089 -475.272 191.304 -477.394 192.514 C-479.247 193.577 -481.093 194.655 -482.927 195.752 C-483.706 196.21 -484.486 196.668 -485.289 197.141 C-485.952 197.539 -486.616 197.938 -487.299 198.349 C-489.794 199.388 -491.634 199.443 -494.312 199.188 C-500.406 194.684 -505.143 188.1 -509.852 182.219 C-512.159 179.377 -514.521 176.598 -516.916 173.831 C-518.953 171.476 -520.974 169.108 -522.991 166.737 C-524.135 165.395 -525.289 164.062 -526.445 162.73 C-527 162.056 -527.554 161.382 -528.125 160.688 C-528.815 159.868 -528.815 159.868 -529.52 159.031 C-530.784 156.09 -530.219 154.209 -529.312 151.188 C-527.273 148.695 -527.273 148.695 -524.688 146.312 C-521.642 143.417 -518.667 140.571 -515.938 137.375 C-512.853 133.774 -509.66 130.288 -506.438 126.812 C-505.401 125.692 -504.364 124.57 -503.328 123.449 C-501.423 121.388 -499.517 119.328 -497.609 117.27 C-496.81 116.397 -496.011 115.524 -495.188 114.625 C-494.484 113.861 -493.78 113.096 -493.055 112.309 C-490.297 108.951 -489.198 107.441 -489.605 102.987 C-490.325 99.119 -491.437 95.866 -492.93 92.23 C-493.188 91.601 -493.445 90.972 -493.711 90.324 C-494.253 89.008 -494.8 87.693 -495.35 86.379 C-496.19 84.368 -497.012 82.35 -497.832 80.33 C-498.363 79.046 -498.896 77.763 -499.43 76.48 C-499.91 75.321 -500.391 74.161 -500.886 72.966 C-502.154 69.942 -502.154 69.942 -505.312 68.188 C-507.703 67.76 -507.703 67.76 -510.407 67.625 C-511.446 67.552 -512.484 67.478 -513.554 67.402 C-514.675 67.331 -515.797 67.261 -516.953 67.188 C-518.686 67.066 -518.686 67.066 -520.455 66.941 C-524.157 66.682 -527.86 66.433 -531.562 66.188 C-535.251 65.941 -538.94 65.692 -542.627 65.434 C-544.923 65.273 -547.219 65.119 -549.516 64.973 C-552.457 64.767 -555.381 64.507 -558.312 64.188 C-559.04 64.113 -559.767 64.038 -560.517 63.961 C-562.386 63.625 -562.386 63.625 -565.312 62.188 C-566.754 59.341 -567.566 57.217 -568.312 54.188 C-568.507 53.46 -568.702 52.732 -568.903 51.982 C-569.503 49.642 -570.045 47.295 -570.574 44.938 C-570.77 44.08 -570.965 43.222 -571.167 42.339 C-571.575 40.538 -571.981 38.736 -572.384 36.934 C-572.999 34.193 -573.629 31.456 -574.26 28.719 C-574.657 26.959 -575.054 25.198 -575.449 23.438 C-575.73 22.225 -575.73 22.225 -576.017 20.987 C-577.128 15.943 -577.634 11.357 -577.312 6.188 C-573.255 1.491 -566.14 1.618 -560.312 1.188 C-534.812 -0.138 -515.469 5.538 -493.302 17.853 C-474.067 28.471 -452.358 34.217 -430.602 27.938 C-425.488 26.262 -420.504 24.224 -415.5 22.25 C-383.858 9.793 -358.84 12.29 -327.469 24.438 C-295.185 36.936 -267.489 39.122 -235.352 25.077 C-200.637 9.939 -174.406 12.918 -139.312 25.188 C-116.348 33.206 -95.227 37.432 -72.382 26.502 C-65.515 23.075 -58.851 19.269 -52.177 15.485 C-35.245 5.904 -19.662 -0.016 0 0 Z " fill="#478cbf" transform="translate(661.3125,457.8125)"/>
</svg>
